<svg viewBox="0 0 400 300" xmlns="http://www.w3.org/2000/svg"><rect fill="#f56132" height="105.78" rx="10.35" transform="matrix(.97393639 -.22682129 .22682129 .97393639 -27.58 46.08)" width="165.32" x="104.02" y="90.13"/><path d="m125.9 212.21a11.37 11.37 0 0 1 -11.05-8.77l-19.3-82.87a11.36 11.36 0 0 1 8.45-13.63l140.88-32.81a11.36 11.36 0 0 1 13.63 8.48l19.3 82.87a11.33 11.33 0 0 1 -8.47 13.62l-140.86 32.82a11.4 11.4 0 0 1 -2.58.29zm121.56-136.38a9.09 9.09 0 0 0 -2.12.25l-140.86 32.81a9.34 9.34 0 0 0 -7 11.22l19.32 82.89a9.36 9.36 0 0 0 11.2 7l140.85-32.81a9.35 9.35 0 0 0 7-11.22l-19.29-82.91a9.36 9.36 0 0 0 -9.1-7.23z" fill="#093f68"/><path d="m100.39 116.93h165.32v21.03h-165.32z" fill="#093f68" transform="matrix(.97393639 -.22682129 .22682129 .97393639 -24.14 44.85)"/><path d="m104.93 157.44a1 1 0 0 1 -1-.78l-4.77-20.48a1 1 0 0 1 .12-.75 1 1 0 0 1 .62-.45l161-37.51a1 1 0 0 1 1.2.75l4.78 20.48a1 1 0 0 1 -.13.76 1 1 0 0 1 -.62.44l-161 37.51a.91.91 0 0 1 -.2.03zm-3.57-20.74 4.32 18.53 159.06-37-4.32-18.53z" fill="#093f68"/><rect fill="#68e1fd" height="105.78" rx="10.35" width="165.32" x="138.43" y="119.38"/><path d="m293.4 226.17h-144.63a11.36 11.36 0 0 1 -11.34-11.35v-85.09a11.36 11.36 0 0 1 11.34-11.35h144.63a11.36 11.36 0 0 1 11.35 11.35v85.09a11.36 11.36 0 0 1 -11.35 11.35zm-144.63-105.79a9.36 9.36 0 0 0 -9.34 9.35v85.09a9.35 9.35 0 0 0 9.34 9.35h144.63a9.35 9.35 0 0 0 9.35-9.35v-85.09a9.36 9.36 0 0 0 -9.35-9.35z" fill="#093f68"/><circle cx="253.3" cy="154.17" fill="#ffbc0e" r="11.63"/><path d="m253.3 166.8a12.63 12.63 0 1 1 12.62-12.63 12.65 12.65 0 0 1 -12.62 12.63zm0-23.25a10.63 10.63 0 1 0 10.62 10.62 10.64 10.64 0 0 0 -10.62-10.62z" fill="#093f68"/><circle cx="271.46" cy="154.17" fill="#f56132" r="11.63"/><g fill="#093f68"><path d="m271.46 166.8a12.63 12.63 0 1 1 12.62-12.63 12.65 12.65 0 0 1 -12.62 12.63zm0-23.25a10.63 10.63 0 1 0 10.62 10.62 10.64 10.64 0 0 0 -10.62-10.62z"/><path d="m173.38 166.74h-11.11a7.05 7.05 0 0 1 -7.05-7v-11.15a7 7 0 0 1 7.05-7h11.11a7 7 0 0 1 7 7v11.11a7.05 7.05 0 0 1 -7 7.04zm-11.11-23.19a5 5 0 0 0 -5.05 5v11.15a5 5 0 0 0 5.05 5h11.11a5 5 0 0 0 5-5v-11.11a5 5 0 0 0 -5-5z"/><path d="m183.69 203h-27.47a1 1 0 0 1 -1-1v-11.71a1 1 0 0 1 1-1h27.47a1 1 0 0 1 1 1v11.71a1 1 0 0 1 -1 1zm-26.47-2h25.47v-9.71h-25.47z"/><path d="m217.78 203h-27.47a1 1 0 0 1 -1-1v-11.71a1 1 0 0 1 1-1h27.47a1 1 0 0 1 1 1v11.71a1 1 0 0 1 -1 1zm-26.47-2h25.47v-9.71h-25.47z"/><path d="m251.86 203h-27.46a1 1 0 0 1 -1-1v-11.71a1 1 0 0 1 1-1h27.46a1 1 0 0 1 1 1v11.71a1 1 0 0 1 -1 1zm-26.46-2h25.46v-9.71h-25.46z"/><path d="m286 203h-27.51a1 1 0 0 1 -1-1v-11.71a1 1 0 0 1 1-1h27.51a1 1 0 0 1 1 1v11.71a1 1 0 0 1 -1 1zm-26.46-2h25.46v-9.71h-25.51z"/></g></svg>